<?xml version="1.0" encoding="utf-8"?>
<!-- Generator: Adobe Illustrator 16.0.3, SVG Export Plug-In . SVG Version: 6.00 Build 0)  -->
<!DOCTYPE svg PUBLIC "-//W3C//DTD SVG 1.1//EN" "http://www.w3.org/Graphics/SVG/1.1/DTD/svg11.dtd">
<svg version="1.1" id="Layer_1" xmlns="http://www.w3.org/2000/svg" xmlns:xlink="http://www.w3.org/1999/xlink" x="0px" y="0px"
	 width="586px" height="599px" viewBox="0 0 586 599" enable-background="new 0 0 586 599" xml:space="preserve">
<path fill="#1BBC9B" d="M582.334,422.176c-1.224-27.54-19.278-49.878-44.829-57.222c-0.459-8.721-1.377-17.595-2.907-26.775
	c-8.721-49.725-33.048-90.729-72.062-121.788c-23.868-18.972-49.267-30.447-75.429-34.272c-6.732-0.918-13.771-1.53-20.81-1.53
	c-12.24,0-24.633,1.377-38.097,4.284c-13.617,2.907-26.928,6.273-39.934,9.486c-5.813,1.377-11.781,2.907-17.748,4.437
	c-3.213,0.765-4.896,0.918-5.66,0.918c-0.153,0-0.153,0-0.307,0c-7.955-2.907-16.523-5.355-26.469-7.497
	c10.863-6.426,21.42-12.546,32.13-18.054c6.579-3.366,13.617-6.579,21.114-9.792c7.803-3.366,15.912-6.885,24.174-11.169
	c30.294-15.606,38.862-37.638,40.698-53.397c3.978-33.966-5.508-61.047-28.152-80.325c-5.967-5.355-16.371-14.229-32.436-14.229
	c-11.017,0-19.737,4.284-26.011,7.956c-6.272,3.672-11.934,7.497-17.289,11.169c-4.283,2.907-8.414,5.814-12.239,8.109
	c-11.935,7.191-24.939,15.3-37.791,24.48c-1.224-1.989-2.448-3.825-3.825-5.508c-9.333-11.628-22.95-19.125-38.403-20.808
	c-2.448-0.306-5.049-0.459-7.65-0.459c-12.546,0-24.939,3.213-35.037,9.18c-14.841,8.721-24.48,22.95-27.387,39.78
	c-1.53,9.027-3.06,18.513-4.437,28.152c-12.24,2.907-24.021,7.344-35.343,13.158c-11.781,6.12-31.212,21.114-31.824,53.55
	c0,4.438,0.459,8.415,0.765,11.169c0,0.459,0.153,1.071,0.153,1.53c-0.612,3.519-1.071,7.038-1.53,10.404
	c-1.683,12.546-3.213,23.409-7.038,32.742c-8.721,21.879-7.956,44.37,2.142,63.495c5.355,10.25,13.158,18.972,22.797,25.398
	c-0.765,5.354-1.224,10.251-1.53,14.535c-1.377,16.063,1.53,30.753,8.568,45.288c1.224,2.446,2.448,5.049,3.672,7.956
	c1.53,3.364,3.213,7.038,5.049,10.71l0.612,1.069c2.295,4.743,5.355,10.71,9.945,16.679c11.169,14.533,25.245,31.059,43.911,45.135
	c2.907,2.295,6.12,4.284,9.333,6.271c-4.284,5.51-7.497,11.018-10.098,15.761c-8.721,16.218-7.803,34.117,1.836,47.734
	c-2.448,23.717,11.322,44.678,34.731,51.714c7.65,2.296,17.748,4.896,28.917,4.896c0.459,0,0.765,0,1.224,0
	c12.393-0.153,24.174-1.377,35.649-2.603l4.283-0.459c1.989-0.151,3.979-0.459,5.814-0.61c3.213-0.459,6.273-0.767,8.415-0.767
	c0.306,0,0.459,0,0.612,0c15.605,8.109,32.895,12.089,52.938,12.089c6.426,0,13.158-0.459,20.81-1.226
	c9.484-1.07,19.125-2.142,28.305-3.213c9.333-1.071,18.972-2.142,28.458-3.213c6.885-0.765,13.923-1.377,20.655-1.989
	c8.566-0.765,17.595-1.683,26.469-2.601c24.479-2.754,44.062-13.158,57.985-30.753c0.153-0.153,0.308-0.459,0.459-0.612
	c23.104-4.896,45.596-14.229,66.861-27.846c10.558-6.732,20.351-14.994,29.376-24.786
	C581.875,472.972,583.252,442.678,582.334,422.176z M534.445,475.42c-6.579,7.191-14.383,13.923-22.646,19.125
	c-18.054,11.477-37.638,19.737-58.599,23.868c-8.109,1.53-12.699,6.579-16.983,12.087c-9.18,11.475-21.267,16.524-35.343,18.207
	c-15.605,1.836-31.365,3.06-46.971,4.743c-18.974,1.989-37.791,4.284-56.765,6.426c-5.812,0.612-11.475,1.071-17.288,1.071
	c-13.006,0-25.857-2.144-37.944-8.568c-5.05-2.754-10.251-3.519-15.606-3.519c-5.814,0-11.781,1.069-17.595,1.528
	c-12.394,1.226-24.786,2.603-37.179,2.907c-0.153,0-0.459,0-0.612,0c-6.426,0-13.005-1.529-19.278-3.519
	c-9.027-2.603-12.546-10.1-10.404-19.125c0.153-0.767,0.459-1.53,0.612-2.295c2.754-9.182,2.754-9.182-4.437-14.688
	c-4.896-3.672-5.814-8.721-2.448-15.146c6.12-11.322,13.617-21.269,26.928-25.094c3.519-1.069,6.885-2.905,10.251-4.282
	c5.661-2.295,6.579-7.497,6.732-12.546c0-1.226-2.448-3.215-4.284-3.825c-10.71-3.521-21.573-6.428-32.13-10.404
	c-5.661-2.142-11.322-5.202-16.218-8.874c-14.535-10.863-26.469-24.479-37.638-38.709c-2.907-3.672-4.896-7.956-6.885-12.087
	c-3.06-6.12-5.661-12.393-8.568-18.36c-4.284-8.721-6.12-17.595-5.202-27.691c0.134-1.569,0.268-3.135,0.412-4.693
	c4.773,0.751,9.771,1.131,14.987,1.13c9.546,0,19.81-1.257,30.691-3.769c8.879-2.049,14.417-10.908,12.368-19.787
	c-2.049-8.878-10.908-14.417-19.788-12.368c-13.798,3.185-24.023,3.288-31.067,2.459c-2.33-0.748-3.805-1.258-5.156-1.528
	c-3.158-0.705-6.125-1.687-8.883-2.914c-0.469-0.251-0.951-0.481-1.446-0.688c-18.406-9.022-26.681-29.41-17.67-51.479
	c6.885-16.983,8.109-34.884,10.863-52.479c0.765-5.049-0.918-10.404-0.765-15.606c0.153-10.251,3.519-18.972,13.464-24.021
	c13.158-6.885,26.928-11.016,41.616-12.852c7.344-0.918,8.262-1.989,9.18-9.18c1.989-14.535,4.284-29.223,6.579-43.758
	c2.601-15.606,17.595-20.808,29.07-20.808c1.377,0,2.754,0,3.978,0.153c18.054,1.989,23.103,18.972,21.726,31.824
	c-1.071,8.874-4.743,17.442-7.191,26.316c-0.459,1.53-0.765,3.06,0,5.508c5.049-4.437,10.251-8.568,14.994-13.311
	c21.113-21.267,45.9-37.791,71.604-53.091c9.945-5.967,19.278-13.311,29.223-19.125c3.673-2.601,6.427-3.672,8.875-3.672
	c3.364,0,6.119,2.142,10.861,6.12c16.065,13.77,18.666,31.824,16.524,50.796c-1.53,13.158-11.476,21.573-22.645,27.387
	c-14.841,7.65-30.753,13.311-45.44,21.114c-17.596,9.18-34.578,19.431-51.715,29.529c-4.131,2.448-6.731,6.273-5.813,11.322
	c1.836,11.016,4.896,21.573,12.546,30.294c4.59,5.202,10.098,7.344,16.524,8.721c9.026,1.836,18.207,4.284,26.928,7.344
	c3.978,1.377,7.804,1.989,11.628,1.989c4.59,0,9.027-0.765,13.617-1.836c18.972-4.59,37.791-9.639,56.763-13.617
	c10.251-2.142,20.655-3.519,31.061-3.519c5.354,0,10.71,0.306,16.063,1.071c22.339,3.213,41.922,13.464,59.364,27.234
	c32.742,26.01,52.632,60.282,59.823,101.287c2.754,15.759,2.754,32.13,3.519,48.193c0.153,3.825,1.685,4.743,4.284,4.743
	c0.306,0,0.765,0,1.071,0c3.366-0.152,6.73-0.765,10.098-0.765c0.918,0,1.836,0,2.754,0.151c14.382,1.837,24.786,12.24,25.552,27.54
	C549.898,442.525,547.756,461.038,534.445,475.42z"/>
</svg>
