<?xml version="1.0" encoding="utf-8"?>
<!-- Generator: Adobe Illustrator 21.0.0, SVG Export Plug-In . SVG Version: 6.00 Build 0)  -->
<svg version="1.1" id="Layer_1" xmlns="http://www.w3.org/2000/svg" xmlns:xlink="http://www.w3.org/1999/xlink" x="0px" y="0px"
	 viewBox="0 0 400 400" style="enable-background:new 0 0 400 400;" xml:space="preserve">
<style type="text/css">
	.st0{fill:#1BBC9B;}
	.st1{fill:none;stroke:#1BBC9B;stroke-width:22;stroke-linecap:round;stroke-miterlimit:10;}
</style>
<g>
	<path class="st0" d="M200.4,28.7c2.2,0,4,1.4,7.1,4c10.5,9,12.2,20.8,10.8,33.2c-1,8.6-7.5,14.1-14.8,17.9
		c-9.7,5-20.1,8.7-29.7,13.8c-11.5,6-22.6,12.7-33.8,19.3c-2.7,1.6-4.4,4.1-3.8,7.4c1.2,7.2,3.2,14.1,8.2,19.8
		c3,3.4,6.6,4.8,10.8,5.7c5.9,1.2,11.9,2.8,17.6,4.8c2.6,0.9,5.1,1.3,7.6,1.3c3,0,5.9-0.5,8.9-1.2c12.4-3,24.7-6.3,37.1-8.9
		c6.7-1.4,13.5-2.3,20.3-2.3c3.5,0,7,0.2,10.5,0.7c14.6,2.1,27.4,8.8,38.8,17.8c21.4,17,34.4,39.4,39.1,66.2
		c1.8,10.3,1.8,21,2.3,31.5c0.1,2.5,1.1,3.1,2.8,3.1c0.2,0,0.5,0,0.7,0c2.2-0.1,4.4-0.5,6.6-0.5c0.6,0,1.2,0,1.8,0.1
		c9.4,1.2,16.2,8,16.7,18c0.6,12.1-0.8,24.2-9.5,33.6c-4.3,4.7-9.4,9.1-14.8,12.5c-11.8,7.5-24.6,12.9-38.3,15.6
		c-5.3,1-8.3,4.3-11.1,7.9c-6,7.5-13.9,10.8-23.1,11.9c-10.2,1.2-20.5,2-30.7,3.1c-12.4,1.3-24.7,2.8-37.1,4.2
		c-3.8,0.4-7.5,0.7-11.3,0.7c-8.5,0-16.9-1.4-24.8-5.6c-3.3-1.8-6.7-2.3-10.2-2.3c-3.8,0-7.7,0.7-11.5,1c-8.1,0.8-16.2,1.7-24.3,1.9
		c-0.1,0-0.3,0-0.4,0c-4.2,0-8.5-1-12.6-2.3c-5.9-1.7-8.2-6.6-6.8-12.5c0.1-0.5,0.3-1,0.4-1.5c1.8-6,1.8-6-2.9-9.6
		c-3.2-2.4-3.8-5.7-1.6-9.9c4-7.4,8.9-13.9,17.6-16.4c2.3-0.7,4.5-1.9,6.7-2.8c3.7-1.5,4.3-4.9,4.4-8.2c0-0.8-1.6-2.1-2.8-2.5
		c-7-2.3-14.1-4.2-21-6.8c-3.7-1.4-7.4-3.4-10.6-5.8c-9.5-7.1-17.3-16-24.6-25.3c-1.9-2.4-3.2-5.2-4.5-7.9c-2-4-3.7-8.1-5.6-12
		c-2.8-5.7-4-11.5-3.4-18.1c0.7-8.2,1.4-16.2,5.6-24c-1.9-0.6-3-1-4-1.2c-16.6-3.7-25.2-19.1-18.3-36c4.5-11.1,5.3-22.8,7.1-34.3
		c0.5-3.3-0.6-6.8-0.5-10.2c0.1-6.7,2.3-12.4,8.8-15.7c8.6-4.5,17.6-7.2,27.2-8.4c4.8-0.6,5.4-1.3,6-6c1.3-9.5,2.8-19.1,4.3-28.6
		c1.7-10.2,11.5-13.6,19-13.6c0.9,0,1.8,0,2.6,0.1c11.8,1.3,15.1,12.4,14.2,20.8c-0.7,5.8-3.1,11.4-4.7,17.2c-0.3,1-0.5,2,0,3.6
		c3.3-2.9,6.7-5.6,9.8-8.7c13.8-13.9,30-24.7,46.8-34.7c6.5-3.9,12.6-8.7,19.1-12.5C197,29.4,198.8,28.7,200.4,28.7 M200.4,6.7
		c-7.2,0-12.9,2.8-17,5.2s-7.8,4.9-11.3,7.3c-2.8,1.9-5.5,3.8-8,5.3c-7.8,4.7-16.3,10-24.7,16c-0.8-1.3-1.6-2.5-2.5-3.6
		c-6.1-7.6-15-12.5-25.1-13.6c-1.6-0.2-3.3-0.3-5-0.3c-8.2,0-16.3,2.1-22.9,6c-9.7,5.7-16,15-17.9,26c-1,5.9-2,12.1-2.9,18.4
		c-8,1.9-15.7,4.8-23.1,8.6c-7.7,4-20.4,13.8-20.8,35c0,2.9,0.3,5.5,0.5,7.3c0,0.3,0.1,0.7,0.1,1c-0.4,2.3-0.7,4.6-1,6.8
		c-1.1,8.2-2.1,15.3-4.6,21.4c-5.7,14.3-5.2,29,1.4,41.5c3.5,6.7,8.6,12.4,14.9,16.6c-0.5,3.5-0.8,6.7-1,9.5
		c-0.9,10.5,1,20.1,5.6,29.6c0.8,1.6,1.6,3.3,2.4,5.2c1,2.2,2.1,4.6,3.3,7l0.4,0.7c1.5,3.1,3.5,7,6.5,10.9
		C55,284,64.2,294.8,76.4,304c1.9,1.5,4,2.8,6.1,4.1c-2.8,3.6-4.9,7.2-6.6,10.3c-5.7,10.6-5.1,22.3,1.2,31.2
		c-1.6,15.5,7.4,29.2,22.7,33.8c5,1.5,11.6,3.2,18.9,3.2c0.3,0,0.5,0,0.8,0c8.1-0.1,15.8-0.9,23.3-1.7l2.8-0.3
		c1.3-0.1,2.6-0.3,3.8-0.4c2.1-0.3,4.1-0.5,5.5-0.5c0.2,0,0.3,0,0.4,0c10.2,5.3,21.5,7.9,34.6,7.9c4.2,0,8.6-0.3,13.6-0.8
		c6.2-0.7,12.5-1.4,18.5-2.1c6.1-0.7,12.4-1.4,18.6-2.1c4.5-0.5,9.1-0.9,13.5-1.3c5.6-0.5,11.5-1.1,17.3-1.7
		c16-1.8,28.8-8.6,37.9-20.1c0.1-0.1,0.2-0.3,0.3-0.4c15.1-3.2,29.8-9.3,43.7-18.2c6.9-4.4,13.3-9.8,19.2-16.2
		c15-16.3,15.9-36.1,15.3-49.5c-0.8-18-12.6-32.6-29.3-37.4c-0.3-5.7-0.9-11.5-1.9-17.5c-5.7-32.5-21.6-59.3-47.1-79.6
		c-15.6-12.4-32.2-19.9-49.3-22.4c-4.4-0.6-9-1-13.6-1c-8,0-16.1,0.9-24.9,2.8c-8.9,1.9-17.6,4.1-26.1,6.2
		c-3.8,0.9-7.7,1.9-11.6,2.9c-2.1,0.5-3.2,0.6-3.7,0.6c-0.1,0-0.1,0-0.2,0c-5.2-1.9-10.8-3.5-17.3-4.9c7.1-4.2,14-8.2,21-11.8
		c4.3-2.2,8.9-4.3,13.8-6.4c5.1-2.2,10.4-4.5,15.8-7.3c19.8-10.2,25.4-24.6,26.6-34.9c2.6-22.2-3.6-39.9-18.4-52.5
		C217.7,12.5,210.9,6.7,200.4,6.7L200.4,6.7z"/>
</g>
<path class="st1" d="M42.3,205.7c-0.2,0,11,8.3,37,2.3"/>
</svg>
