<?xml version="1.0" encoding="utf-8"?>
<!-- Generator: Adobe Illustrator 16.0.3, SVG Export Plug-In . SVG Version: 6.00 Build 0)  -->
<!DOCTYPE svg PUBLIC "-//W3C//DTD SVG 1.1//EN" "http://www.w3.org/Graphics/SVG/1.1/DTD/svg11.dtd">
<svg version="1.1" id="Layer_1" xmlns="http://www.w3.org/2000/svg" xmlns:xlink="http://www.w3.org/1999/xlink" x="0px" y="0px"
	 width="519px" height="500px" viewBox="0 0 519 500" enable-background="new 0 0 519 500" xml:space="preserve">
<g>
	<path fill="none" stroke="#FFFFFF" stroke-width="25" stroke-linecap="round" stroke-linejoin="round" d="M374.792,401.416
		c19.646-26.125,31.458-58.541,31.458-93.75c0-86.291-69.938-156.25-156.25-156.25c-86.292,0-156.25,69.958-156.25,156.25
		c0,35.209,11.792,67.625,31.479,93.75H374.792z M93.75,307.666c-34.521,0-62.5-27.979-62.5-62.5v-31.25
		c0-11.5-9.312-20.833-20.833-20.833 M401.896,344c7.709,3.416,16.209,5.334,25.188,5.334c34.542,0,62.5-27.98,62.5-62.5
		c0-34.5-27.958-62.5-62.5-62.5c-14.229,0-27.291,4.771-37.771,12.812"/>
	<path fill="none" stroke="#FFFFFF" stroke-width="25" stroke-linejoin="round" d="M125,213.917h250"/>
	<path fill="none" stroke="#FFFFFF" stroke-width="25" stroke-linecap="round" stroke-linejoin="round" d="M272.098,98.069
		c12.204,12.204,12.204,31.99,0,44.194c-12.203,12.204-31.99,12.204-44.194,0c-12.204-12.204-12.204-31.99,0-44.194
		C240.108,85.866,259.895,85.866,272.098,98.069"/>
</g>
</svg>
